<?xml version="1.0" encoding="UTF-8" standalone="no"?>
<svg
fill="#9AA0B3"
  xmlns:dc="http://purl.org/dc/elements/1.1/"
  xmlns:cc="http://creativecommons.org/ns#"
  xmlns:rdf="http://www.w3.org/1999/02/22-rdf-syntax-ns#"
  xmlns:svg="http://www.w3.org/2000/svg"
  xmlns="http://www.w3.org/2000/svg"
  xmlns:sodipodi="http://sodipodi.sourceforge.net/DTD/sodipodi-0.dtd"
  xmlns:inkscape="http://www.inkscape.org/namespaces/inkscape"
  viewBox="0 0 16 20"
  version="1.1"
  id="svg74"
  sodipodi:docname="resume.svg"
  width="16"
  height="20"
  inkscape:version="1.0.1 (c497b03c, 2020-09-10)">
<metadata
    id="metadata80">
  <rdf:RDF>
    <cc:Work
        rdf:about="">
      <dc:format>image/svg+xml</dc:format>
      <dc:type
          rdf:resource="http://purl.org/dc/dcmitype/StillImage" />
      <dc:title></dc:title>
    </cc:Work>
  </rdf:RDF>
</metadata>
<defs
    id="defs78" />
<sodipodi:namedview
    pagecolor="#ffffff"
    bordercolor="#666666"
    borderopacity="1"
    objecttolerance="10"
    gridtolerance="10"
    guidetolerance="10"
    inkscape:pageopacity="0"
    inkscape:pageshadow="2"
    inkscape:window-width="1677"
    inkscape:window-height="1049"
    id="namedview76"
    showgrid="false"
    fit-margin-top="0"
    fit-margin-left="0"
    fit-margin-right="0"
    fit-margin-bottom="0"
    inkscape:zoom="30.625"
    inkscape:cx="8"
    inkscape:cy="10"
    inkscape:window-x="53"
    inkscape:window-y="78"
    inkscape:window-maximized="0"
    inkscape:current-layer="svg74" />
<path
    d="m 0,2 v 16 c 0,1.105 0.895,2 2,2 h 12 c 1.105,0 2,-0.895 2,-2 V 2 C 16,0.895 15.105,0 14,0 H 2 C 0.895,0 0,0.895 0,2 Z M 2,7 C 2,5.895 2.895,5 4,5 H 4.5 C 3.672,5 3,4.328 3,3.5 3,2.672 3.672,2 4.5,2 5.328,2 6,2.672 6,3.5 6,4.328 5.328,5 4.5,5 H 5 C 6.105,5 7,5.895 7,7 V 8 H 2 Z m 8,10 H 2 v -2 h 8 z m 4,-4 H 2 V 11 H 14 Z M 14,4 H 9 V 2 h 5 z m 0,4 H 9 V 6 h 5 z"
    id="path72" />
</svg>
